<svg xmlns="http://www.w3.org/2000/svg" viewBox="0 0 100 100" width="100%" height="100%">
<defs>
        <radialGradient id="bg9" cx="50%" cy="40%" r="50%">
          <stop offset="0%" stop-color="#991b1b" />
          <stop offset="100%" stop-color="#180202" />
        </radialGradient>
      </defs>
      <circle cx="50" cy="50" r="48" fill="url(#bg9)" stroke="#ef4444" stroke-width="2.5" />
      <!-- Heavy Iron Spiked Shoulders -->
      <path d="M15 90 C22 74 34 68 50 68 C66 68 78 74 85 90 Z" fill="#262626" stroke="#b91c1c" stroke-width="1.5" />
      <!-- War Helm -->
      <path d="M30 42 C30 26 40 18 50 18 C60 18 70 26 70 42 C70 56 62 66 50 66 C38 66 30 56 30 42 Z" fill="#404040" stroke="#ef4444" stroke-width="1.5" />
      <!-- Horn spikes -->
      <path d="M28 32 L20 18 L32 24 Z" fill="#b91c1c" />
      <path d="M72 32 L80 18 L68 24 Z" fill="#b91c1c" />
      <!-- Visor with burning red glare -->
      <path d="M35 40 L65 40 L62 48 L38 48 Z" fill="#171717" />
      <line x1="38" y1="44" x2="62" y2="44" stroke="#f87171" stroke-width="3" stroke-linecap="round" filter="drop-shadow(0 0 3px #ef4444)" />
</svg>
