<svg xmlns="http://www.w3.org/2000/svg" viewBox="0 0 100 100" width="100%" height="100%">
<defs>
        <radialGradient id="bg20" cx="50%" cy="40%" r="50%">
          <stop offset="0%" stop-color="#4338ca" />
          <stop offset="100%" stop-color="#0f0728" />
        </radialGradient>
      </defs>
      <circle cx="50" cy="50" r="48" fill="url(#bg20)" stroke="#a78bfa" stroke-width="2.5" />
      <!-- Cosmic Starlight Veil -->
      <path d="M26 44 C26 22 36 16 50 16 C64 16 74 22 74 44 C74 68 64 82 60 88 L40 88 C36 82 26 68 26 44 Z" fill="#312e81" stroke="#818cf8" stroke-width="1.5" />
      <!-- Face -->
      <path d="M35 40 C35 30 42 26 50 26 C58 26 65 30 65 40 C65 52 58 60 50 60 C42 60 35 52 35 40 Z" fill="#fde68a" />
      <!-- Crescent Moon Diadem -->
      <path d="M48 24 Q50 20 54 22 Q51 25 50 28 Q48 25 48 24 Z" fill="#fef08a" />
      <!-- Starlit Violet Eyes -->
      <circle cx="43" cy="42" r="2.5" fill="#818cf8" filter="drop-shadow(0 0 2px #c084fc)" />
      <circle cx="57" cy="42" r="2.5" fill="#818cf8" filter="drop-shadow(0 0 2px #c084fc)" />
</svg>
